PathFileType	4	(X/Y/Z)	 s05c0102.trc
DataRate	CameraRate	NumFrames	NumMarkers	Units	OrigDataRate	OrigDataStartFrame	OrigNumFrames
200	200	5	50	mm	200	1001	2000
Frame#	Time	racr			lacr			c7			jug			rlel			rdr			llel			ldr			s2			lic			ric			lasi			rasi			rpsi			lpsi			rgt			lgt			rth1			rth2			rth3			rth4			rlfc			rmfc			rsh1			rsh2			rsh3			rsh4			rlmal			rmmal			rcal			rtoe			rmt5			lth1			lth2			lth4			lth3			llfc			lmfc			lsh1			lsh2			lsh3			lsh4			llmal			lmmal			lcal			ltoe			lmt5			SBIKE			LBIKE			RBIKE			
		X1	Y1	Z1	X2	Y2	Z2	X3	Y3	Z3	X4	Y4	Z4	X5	Y5	Z5	X6	Y6	Z6	X7	Y7	Z7	X8	Y8	Z8	X9	Y9	Z9	X10	Y10	Z10	X11	Y11	Z11	X12	Y12	Z12	X13	Y13	Z13	X14	Y14	Z14	X15	Y15	Z15	X16	Y16	Z16	X17	Y17	Z17	X18	Y18	Z18	X19	Y19	Z19	X20	Y20	Z20	X21	Y21	Z21	X22	Y22	Z22	X23	Y23	Z23	X24	Y24	Z24	X25	Y25	Z25	X26	Y26	Z26	X27	Y27	Z27	X28	Y28	Z28	X29	Y29	Z29	X30	Y30	Z30	X31	Y31	Z31	X32	Y32	Z32	X33	Y33	Z33	X34	Y34	Z34	X35	Y35	Z35	X36	Y36	Z36	X37	Y37	Z37	X38	Y38	Z38	X39	Y39	Z39	X40	Y40	Z40	X41	Y41	Z41	X42	Y42	Z42	X43	Y43	Z43	X44	Y44	Z44	X45	Y45	Z45	X46	Y46	Z46	X47	Y47	Z47	X48	Y48	Z48	X49	Y49	Z49	X50	Y50	Z50	
1001	5.0050	479.660184	1307.559374	-169.710968	465.341803	1292.528256	-424.269543	455.349480	1366.762168	-308.722395	393.722524	1216.201633	-289.826003	505.965536	1087.888900	-4.212879	693.337981	934.854615	-74.464504	466.123695	1036.364187	-563.444921	688.024892	925.112042	-465.401576	-100.279810	1180.638489	-245.665903	25.578016	1192.693812	-399.086568	56.451575	1205.577145	-111.646613	77.177235	1142.658062	-363.593599	96.731107	1141.353546	-143.322760	-63.198052	1228.587632	-206.274977	-68.712181	1230.882101	-293.267113	8.506404	1061.712279	-88.688684	-19.583876	1105.300158	-426.032679	85.738877	961.320695	-79.243603	151.106693	900.335186	-81.026649	175.558511	815.954211	-91.301594	181.249793	919.949516	-91.311487	262.267930	695.130779	-119.404192	238.367242	687.938290	-225.087426	225.956028	593.237422	-86.944265	241.019729	506.676672	-99.039593	214.540655	424.841492	-100.780669	267.506928	507.709889	-127.360154	208.295578	290.839555	-109.950519	217.542097	316.363134	-188.948336	138.551924	258.599622	-153.743750	435.057958	230.653422	-147.443798	332.341600	210.762998	-83.560355	99.649122	1033.030761	-441.154557	185.157450	1022.821216	-436.694942	198.908944	1053.145112	-418.021643	257.003897	968.112697	-441.967251	374.435604	873.504801	-411.943765	356.967648	853.669513	-304.398677	278.057327	796.084227	-437.480020	230.278249	723.669519	-428.644807	150.681090	684.142345	-430.447267	252.501208	700.479468	-407.499472	65.097517	598.880427	-428.833987	102.151069	603.643839	-352.555333	-5.750150	607.707294	-385.059967	191.870365	388.358370	-393.591576	97.359512	447.212749	-454.569847	-214.254498	914.544539	-267.200673	-43.551820	85.295027	-474.999311	-51.801362	80.133157	-77.487214	
1002	5.0100	480.381253	1307.616752	-171.000729	464.171675	1293.246138	-425.434495	455.202672	1367.151124	-309.677063	393.740225	1216.599056	-290.811241	507.211769	1088.551797	-4.371407	693.828477	934.477517	-74.562198	465.903871	1036.881458	-563.347992	688.081535	925.565123	-465.087043	-99.807032	1181.075179	-243.030207	24.926484	1194.342396	-397.415187	58.301828	1204.882034	-109.811464	76.687667	1144.128116	-362.194405	97.663147	1140.750940	-142.350278	-62.453085	1228.545391	-203.758478	-68.558987	1231.728754	-290.423594	8.616170	1060.795700	-87.695404	-19.795305	1108.015800	-424.681683	83.259507	959.272290	-77.879174	147.085796	896.559994	-79.502899	169.440195	811.547821	-89.616294	177.765953	915.385634	-89.603495	253.880273	689.197504	-117.628799	228.862459	681.785193	-222.737666	218.079267	587.407289	-85.328242	233.601254	501.034795	-97.333320	207.515484	418.994438	-99.460434	260.131433	502.065555	-125.825780	202.422676	284.958149	-109.168894	211.578044	310.335975	-188.084995	132.236549	253.656085	-152.646961	428.447201	221.410772	-147.971145	325.781094	203.043241	-83.568102	99.825766	1037.600419	-440.193814	185.562354	1028.915553	-436.040136	198.726740	1059.227647	-416.832369	258.316815	975.630517	-441.967612	377.530185	882.758844	-411.808465	360.469232	862.612277	-303.874623	282.103348	805.099626	-437.190546	234.472136	732.573160	-428.565166	154.934869	692.836760	-429.976400	256.926252	709.529111	-407.906637	69.651776	606.575643	-428.250485	106.646958	611.658028	-352.116472	-1.549306	614.507277	-384.797000	199.352150	397.985441	-393.184993	104.040081	455.496036	-454.266835	-214.253057	914.580631	-267.119808	-43.542745	85.336763	-474.990158	-51.795275	80.123786	-77.475370	
1003	5.0150	480.935455	1307.558813	-172.123905	462.987163	1293.998348	-426.418858	455.016319	1367.457800	-310.472596	393.682744	1216.957913	-291.729757	508.293857	1089.057248	-4.292330	694.364998	933.987906	-74.562071	465.696322	1037.437312	-563.299795	688.142580	926.057599	-464.669088	-99.385236	1181.462372	-240.550302	23.931370	1195.662969	-395.414688	59.876428	1204.285255	-108.239341	76.216259	1145.643969	-361.008401	98.490541	1139.788361	-141.447874	-61.648392	1228.516988	-201.082681	-68.494343	1232.453205	-287.683277	8.530051	1059.958027	-86.802007	-20.022960	1110.594397	-423.351877	80.729542	957.401169	-76.601010	143.087283	893.154316	-77.848454	163.411055	807.676554	-87.873410	174.190114	911.162391	-87.848261	245.628052	683.657973	-115.817890	220.968237	676.278214	-221.535585	210.016713	582.096702	-83.653502	225.842054	495.855861	-95.697357	199.960803	413.696062	-97.976035	252.448212	496.920874	-124.113604	195.945161	279.602332	-108.247617	204.982912	305.002998	-187.038256	125.539889	249.302263	-151.562017	421.349650	212.556739	-148.496796	318.737432	195.600707	-83.504856	99.838575	1041.987960	-439.338626	185.693806	1034.992944	-435.613761	198.413542	1065.191794	-415.774250	259.466674	982.758739	-441.821062	380.668765	892.001192	-411.426391	364.021581	871.822074	-302.467270	285.984071	814.153061	-436.787466	238.706889	741.276945	-428.408843	159.367732	701.186863	-429.574673	261.379764	718.156680	-407.979063	74.529468	613.728446	-427.800486	111.467313	619.260531	-351.882465	2.857059	620.763955	-384.352023	207.378613	407.341202	-392.918524	111.274332	463.329702	-453.927481	-214.249893	914.641792	-266.996519	-43.548443	85.388647	-474.968010	-51.775622	80.150942	-77.455084	
1004	5.0200	481.372845	1307.335618	-173.211793	461.943266	1294.625643	-427.392924	454.771664	1367.658207	-311.169939	393.552943	1217.270057	-292.582847	509.310287	1089.391734	-4.235076	694.786905	933.489013	-74.551394	465.515601	1037.979919	-563.398891	688.138155	926.661878	-464.226143	-99.052395	1181.821857	-238.213696	22.921466	1197.120890	-393.572770	59.294145	1202.721949	-108.623010	75.562557	1146.987971	-359.679194	99.157699	1138.733203	-140.647606	-60.762015	1228.449926	-198.632621	-68.577619	1233.087502	-284.900919	8.304144	1059.194363	-86.149778	-20.350483	1112.939788	-422.065798	78.158380	955.697434	-75.321719	139.180316	890.058944	-76.075555	157.615135	804.201093	-85.489805	170.652745	907.459793	-85.987773	237.568519	678.648514	-113.863283	212.940177	671.191943	-219.678755	201.967325	577.346714	-81.903320	217.936126	491.110690	-93.864778	192.151859	408.913493	-96.440373	244.760919	492.178517	-122.194024	189.216779	274.703280	-107.365550	198.131737	300.084175	-185.945846	118.392840	245.385708	-150.458987	413.674534	204.269630	-149.013924	311.243611	188.616469	-83.468883	99.823566	1046.116028	-438.555156	185.755370	1040.679757	-435.045493	197.946632	1070.891069	-414.810459	260.433448	989.906358	-441.612379	383.425504	901.092151	-412.242679	368.249777	880.025414	-302.787006	290.026727	822.756085	-436.606001	243.106239	749.601107	-428.297373	163.981656	709.089094	-429.321490	265.945341	726.645915	-408.124515	79.601308	620.346940	-427.329949	116.353516	626.261050	-351.730331	7.634505	626.142807	-384.065654	215.931529	416.249234	-392.807269	118.795253	470.656850	-453.619098	-214.245277	914.662913	-266.905799	-43.547971	85.438495	-474.954388	-51.786091	80.169443	-77.441351	
1005	5.0250	481.741321	1306.919483	-174.165603	460.845659	1295.378213	-428.185483	454.535014	1367.777773	-311.779793	393.353684	1217.527343	-293.371810	510.348320	1089.569222	-4.062420	695.334779	933.379860	-74.432367	465.285781	1038.588482	-563.581108	687.942820	927.502905	-463.830423	-98.811263	1182.009812	-236.158513	21.953883	1198.486457	-391.871790	60.600207	1201.796325	-107.248173	74.860270	1148.295808	-358.488383	99.655222	1137.531790	-139.942146	-60.051922	1228.287969	-196.300100	-68.948242	1233.692236	-282.311678	7.906213	1058.392721	-85.670864	-20.795074	1114.969612	-420.805375	75.498573	953.895644	-74.446928	135.352644	887.337835	-74.134068	152.156117	801.099460	-83.173390	167.202244	904.034210	-83.864801	229.962780	674.067357	-111.932616	205.788109	666.692025	-217.833246	194.315992	572.912077	-80.038851	210.094898	486.797139	-91.995872	184.184292	404.599638	-94.845770	237.058176	487.955528	-120.084097	182.046532	270.250667	-106.432609	191.085195	295.715817	-184.906683	110.915224	241.832400	-149.364740	405.635663	196.503298	-149.351980	303.308871	182.276050	-83.352449	99.663952	1049.991089	-437.923727	185.686870	1046.045767	-434.431046	197.227614	1076.321306	-413.966264	261.243197	996.557055	-441.129721	385.631160	909.857874	-412.840401	371.499254	888.877047	-302.753528	293.777578	831.117628	-436.482663	247.553157	757.520856	-428.124960	168.788003	716.346031	-429.115529	270.712131	734.672435	-408.149843	84.952040	626.323653	-426.954597	121.640658	632.914696	-351.405767	13.067213	631.172343	-384.037335	224.746367	424.625969	-392.519710	126.746407	477.298350	-453.368974	-214.266581	914.700597	-266.793128	-43.545999	85.489116	-474.927241	-51.770662	80.172083	-77.434706	
